<?xml version="1.0" standalone="no"?>
<!DOCTYPE svg PUBLIC "-//W3C//DTD SVG 20010904//EN"
 "http://www.w3.org/TR/2001/REC-SVG-20010904/DTD/svg10.dtd">
<svg version="1.0" xmlns="http://www.w3.org/2000/svg"
 width="524.000000pt" height="524.000000pt" viewBox="0 0 524.000000 524.000000"
 preserveAspectRatio="xMidYMid meet">
<metadata>
Created by potrace 1.14, written by Peter Selinger 2001-2017
</metadata>
<g transform="translate(0.000000,524.000000) scale(0.100000,-0.100000)"
fill="#000000" stroke="none">
<path d="M2175 4624 c-165 -57 -351 -120 -413 -141 l-114 -38 6 -253 c4 -139
7 -257 9 -263 1 -6 -21 -23 -50 -40 -59 -33 -134 -107 -160 -159 -10 -19 -23
-40 -30 -47 -6 -7 -15 -22 -18 -33 -3 -11 -11 -20 -16 -20 -13 0 -139 60 -169
80 -14 10 -70 41 -124 70 -82 44 -102 51 -117 41 -10 -6 -23 -11 -29 -11 -5 0
-62 -25 -127 -55 -65 -31 -127 -60 -138 -65 -50 -24 -177 -50 -264 -56 -53 -3
-123 -10 -156 -15 -33 -5 -63 -9 -66 -9 -3 0 -5 -35 -3 -77 1 -43 5 -150 9
-238 3 -88 7 -212 10 -275 14 -422 22 -586 29 -630 3 -19 7 -59 11 -89 7 -70
37 -182 69 -263 14 -36 26 -67 26 -71 0 -11 102 -172 111 -175 5 -2 9 -8 9
-14 0 -18 85 -114 261 -293 92 -93 182 -188 200 -209 39 -45 56 -62 127 -129
l52 -48 67 50 c38 28 75 57 83 64 44 40 139 111 249 187 68 47 128 90 135 95
6 6 41 35 76 65 36 30 78 70 95 89 16 19 35 39 40 45 6 6 26 33 44 59 77 113
132 282 137 422 2 39 4 71 5 73 1 1 2 8 3 15 1 12 86 11 203 -2 10 -1 15 -24
28 -141 3 -25 7 -52 10 -60 2 -8 6 -40 9 -70 4 -30 8 -73 11 -95 10 -74 21
-196 30 -330 3 -49 8 -124 11 -165 5 -88 12 -155 19 -190 22 -111 28 -189 16
-204 -16 -19 -66 -33 -146 -41 -33 -3 -67 -8 -75 -10 -8 -2 -30 -7 -49 -10
-43 -7 -101 -37 -126 -65 -24 -26 -26 -101 -5 -144 35 -69 156 -91 390 -72
263 22 354 108 378 353 8 85 7 331 -3 415 -9 86 -15 448 -7 448 4 0 7 10 8 23
0 30 10 82 37 207 l22 105 30 -2 c153 -9 248 -17 360 -27 66 -7 199 -18 253
-21 23 -1 44 -4 47 -6 4 -4 10 -33 21 -98 3 -19 10 -45 15 -58 5 -13 7 -23 4
-23 -2 0 1 -15 6 -32 5 -18 12 -46 14 -63 3 -16 8 -43 12 -60 7 -33 8 -45 17
-120 10 -89 16 -210 22 -407 3 -106 7 -213 9 -238 8 -142 17 -235 24 -254 4
-11 6 -31 5 -44 0 -12 3 -22 8 -22 5 0 7 -4 4 -9 -6 -9 22 -88 47 -135 40 -75
157 -147 299 -185 170 -46 267 -31 307 47 23 45 22 109 -2 146 -22 33 -89 78
-162 109 -70 29 -102 58 -113 101 -5 17 -8 136 -8 264 1 129 -1 235 -4 237 -7
4 -4 461 4 505 3 19 8 55 11 80 3 25 8 61 11 80 2 19 7 55 9 79 7 57 8 58 47
55 18 -2 66 -6 106 -8 41 -3 77 -8 82 -11 7 -4 55 70 137 212 137 238 207 352
214 347 22 -13 -7 -152 -66 -318 -41 -112 -47 -146 -48 -236 0 -146 89 -233
238 -233 59 0 78 5 112 26 34 21 85 78 89 97 0 3 4 12 7 20 14 34 24 100 25
174 1 43 4 81 6 84 3 2 1 13 -4 23 -7 11 -7 20 0 24 5 3 6 15 2 28 -5 12 -5
38 -2 57 3 19 3 45 -2 58 -5 14 -4 22 4 22 9 0 9 3 1 11 -6 6 -8 22 -4 38 15
57 4 678 -14 771 -3 13 -7 42 -10 65 -12 81 -74 240 -104 265 -4 3 -14 17 -24
32 -10 16 -39 44 -66 64 l-48 36 3 82 c2 44 5 158 8 251 10 284 17 478 20 518
2 21 -1 40 -6 43 -5 3 -53 8 -106 10 -107 4 -248 11 -417 19 -343 16 -399 20
-525 31 -68 6 -146 7 -425 5 -140 -1 -159 -1 -545 3 l-265 3 -300 -103z"/>
</g>
</svg>
